<?xml version="1.0" encoding="utf-8" standalone="no"?>
<!DOCTYPE svg PUBLIC "-//W3C//DTD SVG 1.1//EN"
  "http://www.w3.org/Graphics/SVG/1.1/DTD/svg11.dtd">
<svg xmlns:xlink="http://www.w3.org/1999/xlink" width="460.8pt" height="345.6pt" viewBox="0 0 460.8 345.6" xmlns="http://www.w3.org/2000/svg" version="1.1">
 <metadata>
  <rdf:RDF xmlns:dc="http://purl.org/dc/elements/1.1/" xmlns:cc="http://creativecommons.org/ns#" xmlns:rdf="http://www.w3.org/1999/02/22-rdf-syntax-ns#">
   <cc:Work>
    <dc:type rdf:resource="http://purl.org/dc/dcmitype/StillImage"/>
    <dc:date>2024-07-30T13:35:53.666381</dc:date>
    <dc:format>image/svg+xml</dc:format>
    <dc:creator>
     <cc:Agent>
      <dc:title>Matplotlib v3.8.0, https://matplotlib.org/</dc:title>
     </cc:Agent>
    </dc:creator>
   </cc:Work>
  </rdf:RDF>
 </metadata>
 <defs>
  <style type="text/css">*{stroke-linejoin: round; stroke-linecap: butt}</style>
 </defs>
 <g id="figure_1">
  <g id="patch_1">
   <path d="M 0 345.6 
L 460.8 345.6 
L 460.8 0 
L 0 0 
z
" style="fill: #ffffff"/>
  </g>
  <g id="axes_1">
   <g id="patch_2">
    <path d="M 57.6 307.584 
L 414.72 307.584 
L 414.72 41.472 
L 57.6 41.472 
z
" style="fill: #ffffff"/>
   </g>
   <g id="matplotlib.axis_1">
    <g id="xtick_1">
     <g id="line2d_1">
      <defs>
       <path id="m590c84f7c6" d="M 0 0 
L 0 3.5 
" style="stroke: #000000; stroke-width: 0.8"/>
      </defs>
      <g>
       <use xlink:href="#m590c84f7c6" x="57.6" y="307.584" style="stroke: #000000; stroke-width: 0.8"/>
      </g>
     </g>
     <g id="text_1">
      <!-- 0.0 -->
      <g transform="translate(49.648438 322.182437) scale(0.1 -0.1)">
       <defs>
        <path id="DejaVuSans-30" d="M 2034 4250 
Q 1547 4250 1301 3770 
Q 1056 3291 1056 2328 
Q 1056 1369 1301 889 
Q 1547 409 2034 409 
Q 2525 409 2770 889 
Q 3016 1369 3016 2328 
Q 3016 3291 2770 3770 
Q 2525 4250 2034 4250 
z
M 2034 4750 
Q 2819 4750 3233 4129 
Q 3647 3509 3647 2328 
Q 3647 1150 3233 529 
Q 2819 -91 2034 -91 
Q 1250 -91 836 529 
Q 422 1150 422 2328 
Q 422 3509 836 4129 
Q 1250 4750 2034 4750 
z
" transform="scale(0.015625)"/>
        <path id="DejaVuSans-2e" d="M 684 794 
L 1344 794 
L 1344 0 
L 684 0 
L 684 794 
z
" transform="scale(0.015625)"/>
       </defs>
       <use xlink:href="#DejaVuSans-30"/>
       <use xlink:href="#DejaVuSans-2e" x="63.623047"/>
       <use xlink:href="#DejaVuSans-30" x="95.410156"/>
      </g>
     </g>
    </g>
    <g id="xtick_2">
     <g id="line2d_2">
      <g>
       <use xlink:href="#m590c84f7c6" x="129.024" y="307.584" style="stroke: #000000; stroke-width: 0.8"/>
      </g>
     </g>
     <g id="text_2">
      <!-- 0.2 -->
      <g transform="translate(121.072438 322.182437) scale(0.1 -0.1)">
       <defs>
        <path id="DejaVuSans-32" d="M 1228 531 
L 3431 531 
L 3431 0 
L 469 0 
L 469 531 
Q 828 903 1448 1529 
Q 2069 2156 2228 2338 
Q 2531 2678 2651 2914 
Q 2772 3150 2772 3378 
Q 2772 3750 2511 3984 
Q 2250 4219 1831 4219 
Q 1534 4219 1204 4116 
Q 875 4013 500 3803 
L 500 4441 
Q 881 4594 1212 4672 
Q 1544 4750 1819 4750 
Q 2544 4750 2975 4387 
Q 3406 4025 3406 3419 
Q 3406 3131 3298 2873 
Q 3191 2616 2906 2266 
Q 2828 2175 2409 1742 
Q 1991 1309 1228 531 
z
" transform="scale(0.015625)"/>
       </defs>
       <use xlink:href="#DejaVuSans-30"/>
       <use xlink:href="#DejaVuSans-2e" x="63.623047"/>
       <use xlink:href="#DejaVuSans-32" x="95.410156"/>
      </g>
     </g>
    </g>
    <g id="xtick_3">
     <g id="line2d_3">
      <g>
       <use xlink:href="#m590c84f7c6" x="200.448" y="307.584" style="stroke: #000000; stroke-width: 0.8"/>
      </g>
     </g>
     <g id="text_3">
      <!-- 0.4 -->
      <g transform="translate(192.496438 322.182437) scale(0.1 -0.1)">
       <defs>
        <path id="DejaVuSans-34" d="M 2419 4116 
L 825 1625 
L 2419 1625 
L 2419 4116 
z
M 2253 4666 
L 3047 4666 
L 3047 1625 
L 3713 1625 
L 3713 1100 
L 3047 1100 
L 3047 0 
L 2419 0 
L 2419 1100 
L 313 1100 
L 313 1709 
L 2253 4666 
z
" transform="scale(0.015625)"/>
       </defs>
       <use xlink:href="#DejaVuSans-30"/>
       <use xlink:href="#DejaVuSans-2e" x="63.623047"/>
       <use xlink:href="#DejaVuSans-34" x="95.410156"/>
      </g>
     </g>
    </g>
    <g id="xtick_4">
     <g id="line2d_4">
      <g>
       <use xlink:href="#m590c84f7c6" x="271.872" y="307.584" style="stroke: #000000; stroke-width: 0.8"/>
      </g>
     </g>
     <g id="text_4">
      <!-- 0.6 -->
      <g transform="translate(263.920438 322.182437) scale(0.1 -0.1)">
       <defs>
        <path id="DejaVuSans-36" d="M 2113 2584 
Q 1688 2584 1439 2293 
Q 1191 2003 1191 1497 
Q 1191 994 1439 701 
Q 1688 409 2113 409 
Q 2538 409 2786 701 
Q 3034 994 3034 1497 
Q 3034 2003 2786 2293 
Q 2538 2584 2113 2584 
z
M 3366 4563 
L 3366 3988 
Q 3128 4100 2886 4159 
Q 2644 4219 2406 4219 
Q 1781 4219 1451 3797 
Q 1122 3375 1075 2522 
Q 1259 2794 1537 2939 
Q 1816 3084 2150 3084 
Q 2853 3084 3261 2657 
Q 3669 2231 3669 1497 
Q 3669 778 3244 343 
Q 2819 -91 2113 -91 
Q 1303 -91 875 529 
Q 447 1150 447 2328 
Q 447 3434 972 4092 
Q 1497 4750 2381 4750 
Q 2619 4750 2861 4703 
Q 3103 4656 3366 4563 
z
" transform="scale(0.015625)"/>
       </defs>
       <use xlink:href="#DejaVuSans-30"/>
       <use xlink:href="#DejaVuSans-2e" x="63.623047"/>
       <use xlink:href="#DejaVuSans-36" x="95.410156"/>
      </g>
     </g>
    </g>
    <g id="xtick_5">
     <g id="line2d_5">
      <g>
       <use xlink:href="#m590c84f7c6" x="343.296" y="307.584" style="stroke: #000000; stroke-width: 0.8"/>
      </g>
     </g>
     <g id="text_5">
      <!-- 0.8 -->
      <g transform="translate(335.344438 322.182437) scale(0.1 -0.1)">
       <defs>
        <path id="DejaVuSans-38" d="M 2034 2216 
Q 1584 2216 1326 1975 
Q 1069 1734 1069 1313 
Q 1069 891 1326 650 
Q 1584 409 2034 409 
Q 2484 409 2743 651 
Q 3003 894 3003 1313 
Q 3003 1734 2745 1975 
Q 2488 2216 2034 2216 
z
M 1403 2484 
Q 997 2584 770 2862 
Q 544 3141 544 3541 
Q 544 4100 942 4425 
Q 1341 4750 2034 4750 
Q 2731 4750 3128 4425 
Q 3525 4100 3525 3541 
Q 3525 3141 3298 2862 
Q 3072 2584 2669 2484 
Q 3125 2378 3379 2068 
Q 3634 1759 3634 1313 
Q 3634 634 3220 271 
Q 2806 -91 2034 -91 
Q 1263 -91 848 271 
Q 434 634 434 1313 
Q 434 1759 690 2068 
Q 947 2378 1403 2484 
z
M 1172 3481 
Q 1172 3119 1398 2916 
Q 1625 2713 2034 2713 
Q 2441 2713 2670 2916 
Q 2900 3119 2900 3481 
Q 2900 3844 2670 4047 
Q 2441 4250 2034 4250 
Q 1625 4250 1398 4047 
Q 1172 3844 1172 3481 
z
" transform="scale(0.015625)"/>
       </defs>
       <use xlink:href="#DejaVuSans-30"/>
       <use xlink:href="#DejaVuSans-2e" x="63.623047"/>
       <use xlink:href="#DejaVuSans-38" x="95.410156"/>
      </g>
     </g>
    </g>
    <g id="xtick_6">
     <g id="line2d_6">
      <g>
       <use xlink:href="#m590c84f7c6" x="414.72" y="307.584" style="stroke: #000000; stroke-width: 0.8"/>
      </g>
     </g>
     <g id="text_6">
      <!-- 1.0 -->
      <g transform="translate(406.768438 322.182437) scale(0.1 -0.1)">
       <defs>
        <path id="DejaVuSans-31" d="M 794 531 
L 1825 531 
L 1825 4091 
L 703 3866 
L 703 4441 
L 1819 4666 
L 2450 4666 
L 2450 531 
L 3481 531 
L 3481 0 
L 794 0 
L 794 531 
z
" transform="scale(0.015625)"/>
       </defs>
       <use xlink:href="#DejaVuSans-31"/>
       <use xlink:href="#DejaVuSans-2e" x="63.623047"/>
       <use xlink:href="#DejaVuSans-30" x="95.410156"/>
      </g>
     </g>
    </g>
    <g id="text_7">
     <!-- False Positive Rate -->
     <g transform="translate(189.693594 335.860562) scale(0.1 -0.1)">
      <defs>
       <path id="DejaVuSans-46" d="M 628 4666 
L 3309 4666 
L 3309 4134 
L 1259 4134 
L 1259 2759 
L 3109 2759 
L 3109 2228 
L 1259 2228 
L 1259 0 
L 628 0 
L 628 4666 
z
" transform="scale(0.015625)"/>
       <path id="DejaVuSans-61" d="M 2194 1759 
Q 1497 1759 1228 1600 
Q 959 1441 959 1056 
Q 959 750 1161 570 
Q 1363 391 1709 391 
Q 2188 391 2477 730 
Q 2766 1069 2766 1631 
L 2766 1759 
L 2194 1759 
z
M 3341 1997 
L 3341 0 
L 2766 0 
L 2766 531 
Q 2569 213 2275 61 
Q 1981 -91 1556 -91 
Q 1019 -91 701 211 
Q 384 513 384 1019 
Q 384 1609 779 1909 
Q 1175 2209 1959 2209 
L 2766 2209 
L 2766 2266 
Q 2766 2663 2505 2880 
Q 2244 3097 1772 3097 
Q 1472 3097 1187 3025 
Q 903 2953 641 2809 
L 641 3341 
Q 956 3463 1253 3523 
Q 1550 3584 1831 3584 
Q 2591 3584 2966 3190 
Q 3341 2797 3341 1997 
z
" transform="scale(0.015625)"/>
       <path id="DejaVuSans-6c" d="M 603 4863 
L 1178 4863 
L 1178 0 
L 603 0 
L 603 4863 
z
" transform="scale(0.015625)"/>
       <path id="DejaVuSans-73" d="M 2834 3397 
L 2834 2853 
Q 2591 2978 2328 3040 
Q 2066 3103 1784 3103 
Q 1356 3103 1142 2972 
Q 928 2841 928 2578 
Q 928 2378 1081 2264 
Q 1234 2150 1697 2047 
L 1894 2003 
Q 2506 1872 2764 1633 
Q 3022 1394 3022 966 
Q 3022 478 2636 193 
Q 2250 -91 1575 -91 
Q 1294 -91 989 -36 
Q 684 19 347 128 
L 347 722 
Q 666 556 975 473 
Q 1284 391 1588 391 
Q 1994 391 2212 530 
Q 2431 669 2431 922 
Q 2431 1156 2273 1281 
Q 2116 1406 1581 1522 
L 1381 1569 
Q 847 1681 609 1914 
Q 372 2147 372 2553 
Q 372 3047 722 3315 
Q 1072 3584 1716 3584 
Q 2034 3584 2315 3537 
Q 2597 3491 2834 3397 
z
" transform="scale(0.015625)"/>
       <path id="DejaVuSans-65" d="M 3597 1894 
L 3597 1613 
L 953 1613 
Q 991 1019 1311 708 
Q 1631 397 2203 397 
Q 2534 397 2845 478 
Q 3156 559 3463 722 
L 3463 178 
Q 3153 47 2828 -22 
Q 2503 -91 2169 -91 
Q 1331 -91 842 396 
Q 353 884 353 1716 
Q 353 2575 817 3079 
Q 1281 3584 2069 3584 
Q 2775 3584 3186 3129 
Q 3597 2675 3597 1894 
z
M 3022 2063 
Q 3016 2534 2758 2815 
Q 2500 3097 2075 3097 
Q 1594 3097 1305 2825 
Q 1016 2553 972 2059 
L 3022 2063 
z
" transform="scale(0.015625)"/>
       <path id="DejaVuSans-20" transform="scale(0.015625)"/>
       <path id="DejaVuSans-50" d="M 1259 4147 
L 1259 2394 
L 2053 2394 
Q 2494 2394 2734 2622 
Q 2975 2850 2975 3272 
Q 2975 3691 2734 3919 
Q 2494 4147 2053 4147 
L 1259 4147 
z
M 628 4666 
L 2053 4666 
Q 2838 4666 3239 4311 
Q 3641 3956 3641 3272 
Q 3641 2581 3239 2228 
Q 2838 1875 2053 1875 
L 1259 1875 
L 1259 0 
L 628 0 
L 628 4666 
z
" transform="scale(0.015625)"/>
       <path id="DejaVuSans-6f" d="M 1959 3097 
Q 1497 3097 1228 2736 
Q 959 2375 959 1747 
Q 959 1119 1226 758 
Q 1494 397 1959 397 
Q 2419 397 2687 759 
Q 2956 1122 2956 1747 
Q 2956 2369 2687 2733 
Q 2419 3097 1959 3097 
z
M 1959 3584 
Q 2709 3584 3137 3096 
Q 3566 2609 3566 1747 
Q 3566 888 3137 398 
Q 2709 -91 1959 -91 
Q 1206 -91 779 398 
Q 353 888 353 1747 
Q 353 2609 779 3096 
Q 1206 3584 1959 3584 
z
" transform="scale(0.015625)"/>
       <path id="DejaVuSans-69" d="M 603 3500 
L 1178 3500 
L 1178 0 
L 603 0 
L 603 3500 
z
M 603 4863 
L 1178 4863 
L 1178 4134 
L 603 4134 
L 603 4863 
z
" transform="scale(0.015625)"/>
       <path id="DejaVuSans-74" d="M 1172 4494 
L 1172 3500 
L 2356 3500 
L 2356 3053 
L 1172 3053 
L 1172 1153 
Q 1172 725 1289 603 
Q 1406 481 1766 481 
L 2356 481 
L 2356 0 
L 1766 0 
Q 1100 0 847 248 
Q 594 497 594 1153 
L 594 3053 
L 172 3053 
L 172 3500 
L 594 3500 
L 594 4494 
L 1172 4494 
z
" transform="scale(0.015625)"/>
       <path id="DejaVuSans-76" d="M 191 3500 
L 800 3500 
L 1894 563 
L 2988 3500 
L 3597 3500 
L 2284 0 
L 1503 0 
L 191 3500 
z
" transform="scale(0.015625)"/>
       <path id="DejaVuSans-52" d="M 2841 2188 
Q 3044 2119 3236 1894 
Q 3428 1669 3622 1275 
L 4263 0 
L 3584 0 
L 2988 1197 
Q 2756 1666 2539 1819 
Q 2322 1972 1947 1972 
L 1259 1972 
L 1259 0 
L 628 0 
L 628 4666 
L 2053 4666 
Q 2853 4666 3247 4331 
Q 3641 3997 3641 3322 
Q 3641 2881 3436 2590 
Q 3231 2300 2841 2188 
z
M 1259 4147 
L 1259 2491 
L 2053 2491 
Q 2509 2491 2742 2702 
Q 2975 2913 2975 3322 
Q 2975 3731 2742 3939 
Q 2509 4147 2053 4147 
L 1259 4147 
z
" transform="scale(0.015625)"/>
      </defs>
      <use xlink:href="#DejaVuSans-46"/>
      <use xlink:href="#DejaVuSans-61" x="48.394531"/>
      <use xlink:href="#DejaVuSans-6c" x="109.673828"/>
      <use xlink:href="#DejaVuSans-73" x="137.457031"/>
      <use xlink:href="#DejaVuSans-65" x="189.556641"/>
      <use xlink:href="#DejaVuSans-20" x="251.080078"/>
      <use xlink:href="#DejaVuSans-50" x="282.867188"/>
      <use xlink:href="#DejaVuSans-6f" x="339.544922"/>
      <use xlink:href="#DejaVuSans-73" x="400.726562"/>
      <use xlink:href="#DejaVuSans-69" x="452.826172"/>
      <use xlink:href="#DejaVuSans-74" x="480.609375"/>
      <use xlink:href="#DejaVuSans-69" x="519.818359"/>
      <use xlink:href="#DejaVuSans-76" x="547.601562"/>
      <use xlink:href="#DejaVuSans-65" x="606.78125"/>
      <use xlink:href="#DejaVuSans-20" x="668.304688"/>
      <use xlink:href="#DejaVuSans-52" x="700.091797"/>
      <use xlink:href="#DejaVuSans-61" x="767.324219"/>
      <use xlink:href="#DejaVuSans-74" x="828.603516"/>
      <use xlink:href="#DejaVuSans-65" x="867.8125"/>
     </g>
    </g>
   </g>
   <g id="matplotlib.axis_2">
    <g id="ytick_1">
     <g id="line2d_7">
      <defs>
       <path id="m074809ac2c" d="M 0 0 
L -3.5 0 
" style="stroke: #000000; stroke-width: 0.8"/>
      </defs>
      <g>
       <use xlink:href="#m074809ac2c" x="57.6" y="307.584" style="stroke: #000000; stroke-width: 0.8"/>
      </g>
     </g>
     <g id="text_8">
      <!-- 0.0 -->
      <g transform="translate(34.696875 311.383219) scale(0.1 -0.1)">
       <use xlink:href="#DejaVuSans-30"/>
       <use xlink:href="#DejaVuSans-2e" x="63.623047"/>
       <use xlink:href="#DejaVuSans-30" x="95.410156"/>
      </g>
     </g>
    </g>
    <g id="ytick_2">
     <g id="line2d_8">
      <g>
       <use xlink:href="#m074809ac2c" x="57.6" y="256.896" style="stroke: #000000; stroke-width: 0.8"/>
      </g>
     </g>
     <g id="text_9">
      <!-- 0.2 -->
      <g transform="translate(34.696875 260.695219) scale(0.1 -0.1)">
       <use xlink:href="#DejaVuSans-30"/>
       <use xlink:href="#DejaVuSans-2e" x="63.623047"/>
       <use xlink:href="#DejaVuSans-32" x="95.410156"/>
      </g>
     </g>
    </g>
    <g id="ytick_3">
     <g id="line2d_9">
      <g>
       <use xlink:href="#m074809ac2c" x="57.6" y="206.208" style="stroke: #000000; stroke-width: 0.8"/>
      </g>
     </g>
     <g id="text_10">
      <!-- 0.4 -->
      <g transform="translate(34.696875 210.007219) scale(0.1 -0.1)">
       <use xlink:href="#DejaVuSans-30"/>
       <use xlink:href="#DejaVuSans-2e" x="63.623047"/>
       <use xlink:href="#DejaVuSans-34" x="95.410156"/>
      </g>
     </g>
    </g>
    <g id="ytick_4">
     <g id="line2d_10">
      <g>
       <use xlink:href="#m074809ac2c" x="57.6" y="155.52" style="stroke: #000000; stroke-width: 0.8"/>
      </g>
     </g>
     <g id="text_11">
      <!-- 0.6 -->
      <g transform="translate(34.696875 159.319219) scale(0.1 -0.1)">
       <use xlink:href="#DejaVuSans-30"/>
       <use xlink:href="#DejaVuSans-2e" x="63.623047"/>
       <use xlink:href="#DejaVuSans-36" x="95.410156"/>
      </g>
     </g>
    </g>
    <g id="ytick_5">
     <g id="line2d_11">
      <g>
       <use xlink:href="#m074809ac2c" x="57.6" y="104.832" style="stroke: #000000; stroke-width: 0.8"/>
      </g>
     </g>
     <g id="text_12">
      <!-- 0.8 -->
      <g transform="translate(34.696875 108.631219) scale(0.1 -0.1)">
       <use xlink:href="#DejaVuSans-30"/>
       <use xlink:href="#DejaVuSans-2e" x="63.623047"/>
       <use xlink:href="#DejaVuSans-38" x="95.410156"/>
      </g>
     </g>
    </g>
    <g id="ytick_6">
     <g id="line2d_12">
      <g>
       <use xlink:href="#m074809ac2c" x="57.6" y="54.144" style="stroke: #000000; stroke-width: 0.8"/>
      </g>
     </g>
     <g id="text_13">
      <!-- 1.0 -->
      <g transform="translate(34.696875 57.943219) scale(0.1 -0.1)">
       <use xlink:href="#DejaVuSans-31"/>
       <use xlink:href="#DejaVuSans-2e" x="63.623047"/>
       <use xlink:href="#DejaVuSans-30" x="95.410156"/>
      </g>
     </g>
    </g>
    <g id="text_14">
     <!-- True Positive Rate -->
     <g transform="translate(28.617187 219.057687) rotate(-90) scale(0.1 -0.1)">
      <defs>
       <path id="DejaVuSans-54" d="M -19 4666 
L 3928 4666 
L 3928 4134 
L 2272 4134 
L 2272 0 
L 1638 0 
L 1638 4134 
L -19 4134 
L -19 4666 
z
" transform="scale(0.015625)"/>
       <path id="DejaVuSans-72" d="M 2631 2963 
Q 2534 3019 2420 3045 
Q 2306 3072 2169 3072 
Q 1681 3072 1420 2755 
Q 1159 2438 1159 1844 
L 1159 0 
L 581 0 
L 581 3500 
L 1159 3500 
L 1159 2956 
Q 1341 3275 1631 3429 
Q 1922 3584 2338 3584 
Q 2397 3584 2469 3576 
Q 2541 3569 2628 3553 
L 2631 2963 
z
" transform="scale(0.015625)"/>
       <path id="DejaVuSans-75" d="M 544 1381 
L 544 3500 
L 1119 3500 
L 1119 1403 
Q 1119 906 1312 657 
Q 1506 409 1894 409 
Q 2359 409 2629 706 
Q 2900 1003 2900 1516 
L 2900 3500 
L 3475 3500 
L 3475 0 
L 2900 0 
L 2900 538 
Q 2691 219 2414 64 
Q 2138 -91 1772 -91 
Q 1169 -91 856 284 
Q 544 659 544 1381 
z
M 1991 3584 
L 1991 3584 
z
" transform="scale(0.015625)"/>
      </defs>
      <use xlink:href="#DejaVuSans-54"/>
      <use xlink:href="#DejaVuSans-72" x="46.333984"/>
      <use xlink:href="#DejaVuSans-75" x="87.447266"/>
      <use xlink:href="#DejaVuSans-65" x="150.826172"/>
      <use xlink:href="#DejaVuSans-20" x="212.349609"/>
      <use xlink:href="#DejaVuSans-50" x="244.136719"/>
      <use xlink:href="#DejaVuSans-6f" x="300.814453"/>
      <use xlink:href="#DejaVuSans-73" x="361.996094"/>
      <use xlink:href="#DejaVuSans-69" x="414.095703"/>
      <use xlink:href="#DejaVuSans-74" x="441.878906"/>
      <use xlink:href="#DejaVuSans-69" x="481.087891"/>
      <use xlink:href="#DejaVuSans-76" x="508.871094"/>
      <use xlink:href="#DejaVuSans-65" x="568.050781"/>
      <use xlink:href="#DejaVuSans-20" x="629.574219"/>
      <use xlink:href="#DejaVuSans-52" x="661.361328"/>
      <use xlink:href="#DejaVuSans-61" x="728.59375"/>
      <use xlink:href="#DejaVuSans-74" x="789.873047"/>
      <use xlink:href="#DejaVuSans-65" x="829.082031"/>
     </g>
    </g>
   </g>
   <g id="line2d_13">
    <path d="M 57.6 307.584 
L 57.6 295.389188 
L 58.027177 295.389188 
L 58.027177 291.677724 
L 58.454354 291.677724 
L 58.454354 287.43605 
L 58.881531 287.43605 
L 58.881531 285.845423 
L 59.308708 285.845423 
L 59.308708 284.785004 
L 59.735885 284.785004 
L 59.735885 282.487431 
L 60.163062 282.487431 
L 60.163062 280.720067 
L 60.590239 280.720067 
L 60.590239 279.306176 
L 61.017416 279.306176 
L 61.017416 277.715548 
L 61.444593 277.715548 
L 61.444593 275.771448 
L 61.87177 275.771448 
L 61.87177 274.711029 
L 62.298947 274.711029 
L 62.298947 274.534293 
L 63.153301 274.534293 
L 63.153301 273.297138 
L 63.580478 273.297138 
L 63.580478 271.883247 
L 64.007656 271.883247 
L 64.007656 266.757891 
L 64.434833 266.757891 
L 64.434833 263.753372 
L 64.86201 263.753372 
L 64.86201 257.744335 
L 65.289187 257.744335 
L 65.289187 253.679397 
L 65.716364 253.679397 
L 65.716364 251.912033 
L 66.143541 251.912033 
L 66.143541 250.851615 
L 66.570718 250.851615 
L 66.570718 250.498142 
L 66.997895 250.498142 
L 66.997895 250.321406 
L 67.425072 250.321406 
L 67.425072 246.256469 
L 67.852249 246.256469 
L 67.852249 241.838059 
L 68.279426 241.838059 
L 68.279426 239.363749 
L 68.706603 239.363749 
L 68.706603 238.303331 
L 69.13378 238.303331 
L 69.13378 236.005757 
L 69.560957 236.005757 
L 69.560957 234.061657 
L 70.415311 234.061657 
L 70.415311 232.824502 
L 70.842488 232.824502 
L 70.842488 232.117556 
L 71.269665 232.117556 
L 71.269665 228.936301 
L 71.696842 228.936301 
L 71.696842 228.582828 
L 72.124019 228.582828 
L 72.124019 221.513372 
L 72.551196 221.513372 
L 72.551196 220.983163 
L 73.40555 220.983163 
L 73.40555 220.806427 
L 73.832727 220.806427 
L 73.832727 219.922745 
L 74.259904 219.922745 
L 74.259904 219.392536 
L 75.114258 219.392536 
L 75.114258 217.801908 
L 75.968612 217.801908 
L 75.968612 210.202243 
L 76.395789 210.202243 
L 76.395789 208.965088 
L 76.822967 208.965088 
L 76.822967 206.490778 
L 77.250144 206.490778 
L 77.250144 202.95605 
L 78.531675 202.95605 
L 78.531675 198.184167 
L 79.386029 198.184167 
L 79.386029 197.830695 
L 79.813206 197.830695 
L 79.813206 193.942494 
L 80.240383 193.942494 
L 80.240383 192.882075 
L 80.66756 192.882075 
L 80.66756 189.70082 
L 82.376268 189.70082 
L 82.376268 189.524084 
L 82.803445 189.524084 
L 82.803445 188.817138 
L 83.230622 188.817138 
L 83.230622 188.463665 
L 83.657799 188.463665 
L 83.657799 185.459146 
L 84.084976 185.459146 
L 84.084976 183.868519 
L 84.512153 183.868519 
L 84.512153 183.161573 
L 84.93933 183.161573 
L 84.93933 182.631364 
L 85.366507 182.631364 
L 85.366507 182.277891 
L 85.793684 182.277891 
L 85.793684 181.394209 
L 86.220861 181.394209 
L 86.220861 176.092117 
L 86.648038 176.092117 
L 86.648038 175.561908 
L 87.075215 175.561908 
L 87.075215 172.557389 
L 87.502392 172.557389 
L 87.502392 172.02718 
L 87.929569 172.02718 
L 87.929569 169.906343 
L 88.783923 169.906343 
L 88.783923 169.729607 
L 89.2111 169.729607 
L 89.2111 169.199397 
L 89.638278 169.199397 
L 89.638278 168.315715 
L 90.065455 168.315715 
L 90.065455 165.487933 
L 90.492632 165.487933 
L 90.492632 164.250778 
L 90.919809 164.250778 
L 90.919809 164.074042 
L 91.346986 164.074042 
L 91.346986 163.367096 
L 91.774163 163.367096 
L 91.774163 162.836887 
L 92.20134 162.836887 
L 92.20134 161.953205 
L 93.055694 161.953205 
L 93.055694 160.71605 
L 93.482871 160.71605 
L 93.482871 160.362577 
L 93.910048 160.362577 
L 93.910048 158.595213 
L 94.337225 158.595213 
L 94.337225 158.065004 
L 94.764402 158.065004 
L 94.764402 157.711531 
L 96.045933 157.711531 
L 96.045933 157.358059 
L 96.47311 157.358059 
L 96.47311 155.413958 
L 96.900287 155.413958 
L 96.900287 154.707013 
L 97.327464 154.707013 
L 97.327464 154.530276 
L 98.181818 154.530276 
L 98.181818 154.176803 
L 99.036172 154.176803 
L 99.036172 153.293121 
L 99.463349 153.293121 
L 99.463349 152.232703 
L 99.890526 152.232703 
L 99.890526 151.87923 
L 100.317703 151.87923 
L 100.317703 151.702494 
L 100.74488 151.702494 
L 100.74488 151.525757 
L 101.172057 151.525757 
L 101.172057 150.818812 
L 102.453589 150.818812 
L 102.453589 150.288603 
L 102.880766 150.288603 
L 102.880766 147.991029 
L 103.307943 147.991029 
L 103.307943 147.284084 
L 103.73512 147.284084 
L 103.73512 146.930611 
L 104.162297 146.930611 
L 104.162297 146.753874 
L 105.443828 146.753874 
L 105.443828 146.046929 
L 105.871005 146.046929 
L 105.871005 145.339983 
L 106.298182 145.339983 
L 106.298182 144.98651 
L 106.725359 144.98651 
L 106.725359 144.633038 
L 107.152536 144.633038 
L 107.152536 143.219146 
L 107.579713 143.219146 
L 107.579713 142.512201 
L 108.00689 142.512201 
L 108.00689 141.628519 
L 108.434067 141.628519 
L 108.434067 141.275046 
L 109.288421 141.275046 
L 109.288421 141.09831 
L 109.715598 141.09831 
L 109.715598 140.744837 
L 110.142775 140.744837 
L 110.142775 140.037891 
L 110.569952 140.037891 
L 110.569952 139.507682 
L 111.424306 139.507682 
L 111.424306 138.447264 
L 111.851483 138.447264 
L 111.851483 137.740318 
L 112.705837 137.740318 
L 112.705837 137.563582 
L 113.133014 137.563582 
L 113.133014 136.856636 
L 113.560191 136.856636 
L 113.560191 135.972954 
L 114.414545 135.972954 
L 114.414545 135.796218 
L 114.841722 135.796218 
L 114.841722 135.089272 
L 115.2689 135.089272 
L 115.2689 134.382326 
L 115.696077 134.382326 
L 115.696077 133.498644 
L 116.123254 133.498644 
L 116.123254 132.791699 
L 116.550431 132.791699 
L 116.550431 132.26149 
L 117.404785 132.26149 
L 117.404785 132.084753 
L 117.831962 132.084753 
L 117.831962 131.554544 
L 118.259139 131.554544 
L 118.259139 131.377808 
L 118.686316 131.377808 
L 118.686316 130.670862 
L 119.113493 130.670862 
L 119.113493 130.494126 
L 119.54067 130.494126 
L 119.54067 130.140653 
L 120.822201 130.140653 
L 120.822201 129.256971 
L 121.249378 129.256971 
L 121.249378 128.726762 
L 121.676555 128.726762 
L 121.676555 128.373289 
L 122.103732 128.373289 
L 122.103732 128.196552 
L 122.530909 128.196552 
L 122.530909 127.843079 
L 123.81244 127.843079 
L 123.81244 126.959397 
L 124.239617 126.959397 
L 124.239617 126.605925 
L 124.666794 126.605925 
L 124.666794 126.252452 
L 125.093971 126.252452 
L 125.093971 125.898979 
L 125.521148 125.898979 
L 125.521148 125.722243 
L 125.948325 125.722243 
L 125.948325 124.661824 
L 126.375502 124.661824 
L 126.375502 124.308351 
L 126.802679 124.308351 
L 126.802679 123.778142 
L 128.084211 123.778142 
L 128.084211 122.540987 
L 129.792919 122.540987 
L 129.792919 122.364251 
L 130.647273 122.364251 
L 130.647273 122.187515 
L 131.07445 122.187515 
L 131.07445 121.834042 
L 132.783158 121.834042 
L 132.783158 121.657305 
L 133.210335 121.657305 
L 133.210335 121.480569 
L 134.064689 121.480569 
L 134.064689 121.303833 
L 134.491866 121.303833 
L 134.491866 120.773623 
L 134.919043 120.773623 
L 134.919043 119.889941 
L 135.34622 119.889941 
L 135.34622 119.713205 
L 136.200574 119.713205 
L 136.200574 119.536469 
L 136.627751 119.536469 
L 136.627751 118.299314 
L 137.054928 118.299314 
L 137.054928 117.945841 
L 137.482105 117.945841 
L 137.482105 117.238895 
L 137.909282 117.238895 
L 137.909282 116.885423 
L 138.336459 116.885423 
L 138.336459 116.708686 
L 138.763636 116.708686 
L 138.763636 115.471531 
L 140.472344 115.471531 
L 140.472344 115.294795 
L 141.326699 115.294795 
L 141.326699 115.118059 
L 141.753876 115.118059 
L 141.753876 114.234377 
L 142.60823 114.234377 
L 142.60823 114.05764 
L 143.035407 114.05764 
L 143.035407 113.880904 
L 143.462584 113.880904 
L 143.462584 113.704167 
L 144.316938 113.704167 
L 144.316938 113.350695 
L 146.025646 113.350695 
L 146.025646 113.173958 
L 146.88 113.173958 
L 146.88 112.643749 
L 147.307177 112.643749 
L 147.307177 111.760067 
L 147.734354 111.760067 
L 147.734354 111.583331 
L 148.161531 111.583331 
L 148.161531 110.346176 
L 149.015885 110.346176 
L 149.015885 110.169439 
L 150.724593 110.169439 
L 150.724593 109.992703 
L 151.15177 109.992703 
L 151.15177 109.63923 
L 151.578947 109.63923 
L 151.578947 108.578812 
L 153.287656 108.578812 
L 153.287656 108.225339 
L 153.714833 108.225339 
L 153.714833 107.69513 
L 154.14201 107.69513 
L 154.14201 107.518393 
L 154.996364 107.518393 
L 154.996364 107.341657 
L 155.423541 107.341657 
L 155.423541 107.164921 
L 156.705072 107.164921 
L 156.705072 106.281238 
L 157.132249 106.281238 
L 157.132249 105.927766 
L 158.41378 105.927766 
L 158.41378 105.397556 
L 158.840957 105.397556 
L 158.840957 105.22082 
L 159.695311 105.22082 
L 159.695311 105.044084 
L 160.122488 105.044084 
L 160.122488 104.160402 
L 160.549665 104.160402 
L 160.549665 103.983665 
L 160.976842 103.983665 
L 160.976842 103.630192 
L 161.404019 103.630192 
L 161.404019 103.453456 
L 162.258373 103.453456 
L 162.258373 102.923247 
L 163.112727 102.923247 
L 163.112727 102.74651 
L 163.539904 102.74651 
L 163.539904 102.569774 
L 163.967081 102.569774 
L 163.967081 101.862828 
L 164.821435 101.862828 
L 164.821435 101.332619 
L 165.248612 101.332619 
L 165.248612 100.095464 
L 165.675789 100.095464 
L 165.675789 99.918728 
L 166.102967 99.918728 
L 166.102967 99.741992 
L 166.530144 99.741992 
L 166.530144 99.388519 
L 166.957321 99.388519 
L 166.957321 99.035046 
L 167.384498 99.035046 
L 167.384498 97.621155 
L 168.238852 97.621155 
L 168.238852 97.444418 
L 168.666029 97.444418 
L 168.666029 96.914209 
L 169.093206 96.914209 
L 169.093206 96.560736 
L 169.94756 96.560736 
L 169.94756 96.207264 
L 170.374737 96.207264 
L 170.374737 95.853791 
L 170.801914 95.853791 
L 170.801914 95.677054 
L 172.083445 95.677054 
L 172.083445 94.4399 
L 175.073684 94.4399 
L 175.073684 94.086427 
L 175.928038 94.086427 
L 175.928038 93.90969 
L 176.782392 93.90969 
L 176.782392 93.732954 
L 177.209569 93.732954 
L 177.209569 93.556218 
L 177.636746 93.556218 
L 177.636746 93.379481 
L 178.4911 93.379481 
L 178.4911 93.026008 
L 178.918278 93.026008 
L 178.918278 92.495799 
L 179.345455 92.495799 
L 179.345455 91.435381 
L 179.772632 91.435381 
L 179.772632 91.081908 
L 180.199809 91.081908 
L 180.199809 90.728435 
L 180.626986 90.728435 
L 180.626986 90.551699 
L 181.48134 90.551699 
L 181.48134 90.374962 
L 182.335694 90.374962 
L 182.335694 90.198226 
L 182.762871 90.198226 
L 182.762871 90.02149 
L 183.190048 90.02149 
L 183.190048 89.49128 
L 184.044402 89.49128 
L 184.044402 89.314544 
L 184.471579 89.314544 
L 184.471579 88.961071 
L 187.034641 88.961071 
L 187.034641 88.784335 
L 187.888995 88.784335 
L 187.888995 88.607598 
L 188.316172 88.607598 
L 188.316172 87.900653 
L 188.743349 87.900653 
L 188.743349 87.54718 
L 189.597703 87.54718 
L 189.597703 87.370444 
L 190.02488 87.370444 
L 190.02488 87.016971 
L 191.306411 87.016971 
L 191.306411 86.840234 
L 193.01512 86.840234 
L 193.01512 86.663498 
L 193.869474 86.663498 
L 193.869474 86.310025 
L 194.723828 86.310025 
L 194.723828 86.133289 
L 195.578182 86.133289 
L 195.578182 85.956552 
L 196.859713 85.956552 
L 196.859713 85.779816 
L 200.277129 85.779816 
L 200.277129 85.603079 
L 203.267368 85.603079 
L 203.267368 85.426343 
L 203.694545 85.426343 
L 203.694545 85.249607 
L 204.121722 85.249607 
L 204.121722 85.07287 
L 205.830431 85.07287 
L 205.830431 84.365925 
L 207.539139 84.365925 
L 207.539139 84.189188 
L 208.393493 84.189188 
L 208.393493 83.658979 
L 210.102201 83.658979 
L 210.102201 83.482243 
L 210.529378 83.482243 
L 210.529378 83.12877 
L 210.956555 83.12877 
L 210.956555 82.952033 
L 211.810909 82.952033 
L 211.810909 82.598561 
L 213.09244 82.598561 
L 213.09244 82.421824 
L 214.373971 82.421824 
L 214.373971 82.245088 
L 215.228325 82.245088 
L 215.228325 82.068351 
L 215.655502 82.068351 
L 215.655502 81.891615 
L 216.509856 81.891615 
L 216.509856 81.714879 
L 217.364211 81.714879 
L 217.364211 81.538142 
L 218.218565 81.538142 
L 218.218565 81.361406 
L 218.645742 81.361406 
L 218.645742 81.184669 
L 219.072919 81.184669 
L 219.072919 81.007933 
L 222.490335 81.007933 
L 222.490335 80.300987 
L 223.771866 80.300987 
L 223.771866 80.124251 
L 224.199043 80.124251 
L 224.199043 79.417305 
L 224.62622 79.417305 
L 224.62622 79.063833 
L 225.053397 79.063833 
L 225.053397 78.71036 
L 227.189282 78.71036 
L 227.189282 78.533623 
L 228.043636 78.533623 
L 228.043636 78.356887 
L 229.752344 78.356887 
L 229.752344 78.180151 
L 230.606699 78.180151 
L 230.606699 77.826678 
L 231.461053 77.826678 
L 231.461053 77.296469 
L 231.88823 77.296469 
L 231.88823 77.119732 
L 232.315407 77.119732 
L 232.315407 76.766259 
L 232.742584 76.766259 
L 232.742584 76.589523 
L 234.451292 76.589523 
L 234.451292 76.412787 
L 234.878469 76.412787 
L 234.878469 75.705841 
L 235.305646 75.705841 
L 235.305646 75.529105 
L 235.732823 75.529105 
L 235.732823 75.352368 
L 236.16 75.352368 
L 236.16 75.175632 
L 236.587177 75.175632 
L 236.587177 74.998895 
L 238.295885 74.998895 
L 238.295885 74.822159 
L 238.723062 74.822159 
L 238.723062 74.468686 
L 239.577416 74.468686 
L 239.577416 73.938477 
L 240.004593 73.938477 
L 240.004593 73.761741 
L 240.858947 73.761741 
L 240.858947 73.585004 
L 241.286124 73.585004 
L 241.286124 73.231531 
L 242.567656 73.231531 
L 242.567656 73.054795 
L 243.42201 73.054795 
L 243.42201 72.878059 
L 245.130718 72.878059 
L 245.130718 72.347849 
L 245.985072 72.347849 
L 245.985072 72.171113 
L 248.548134 72.171113 
L 248.548134 71.994377 
L 249.402488 71.994377 
L 249.402488 71.287431 
L 250.256842 71.287431 
L 250.256842 71.110695 
L 250.684019 71.110695 
L 250.684019 70.933958 
L 252.819904 70.933958 
L 252.819904 70.403749 
L 255.810144 70.403749 
L 255.810144 70.227013 
L 257.518852 70.227013 
L 257.518852 70.050276 
L 259.22756 70.050276 
L 259.22756 69.87354 
L 259.654737 69.87354 
L 259.654737 69.520067 
L 260.936268 69.520067 
L 260.936268 69.343331 
L 261.790622 69.343331 
L 261.790622 69.166594 
L 262.217799 69.166594 
L 262.217799 68.989858 
L 263.072153 68.989858 
L 263.072153 68.636385 
L 263.926507 68.636385 
L 263.926507 68.282912 
L 264.353684 68.282912 
L 264.353684 68.106176 
L 267.7711 68.106176 
L 267.7711 67.929439 
L 268.198278 67.929439 
L 268.198278 67.752703 
L 270.76134 67.752703 
L 270.76134 67.39923 
L 274.178756 67.39923 
L 274.178756 67.045757 
L 275.887464 67.045757 
L 275.887464 66.869021 
L 279.30488 66.869021 
L 279.30488 65.985339 
L 280.159234 65.985339 
L 280.159234 65.808603 
L 280.586411 65.808603 
L 280.586411 65.631866 
L 281.013589 65.631866 
L 281.013589 65.278393 
L 281.867943 65.278393 
L 281.867943 65.101657 
L 282.29512 65.101657 
L 282.29512 64.748184 
L 284.431005 64.748184 
L 284.431005 64.571448 
L 284.858182 64.571448 
L 284.858182 64.217975 
L 289.129952 64.217975 
L 289.129952 64.041238 
L 289.984306 64.041238 
L 289.984306 63.864502 
L 290.411483 63.864502 
L 290.411483 63.511029 
L 291.265837 63.511029 
L 291.265837 63.334293 
L 292.120191 63.334293 
L 292.120191 62.804084 
L 292.974545 62.804084 
L 292.974545 62.627347 
L 293.401722 62.627347 
L 293.401722 62.450611 
L 295.110431 62.450611 
L 295.110431 62.273874 
L 295.964785 62.273874 
L 295.964785 62.097138 
L 297.246316 62.097138 
L 297.246316 61.920402 
L 298.955024 61.920402 
L 298.955024 61.566929 
L 301.945263 61.566929 
L 301.945263 61.390192 
L 305.362679 61.390192 
L 305.362679 61.213456 
L 308.352919 61.213456 
L 308.352919 61.03672 
L 310.061627 61.03672 
L 310.061627 60.683247 
L 311.343158 60.683247 
L 311.343158 60.50651 
L 314.760574 60.50651 
L 314.760574 60.329774 
L 316.469282 60.329774 
L 316.469282 60.153038 
L 317.750813 60.153038 
L 317.750813 59.976301 
L 318.17799 59.976301 
L 318.17799 59.799565 
L 320.313876 59.799565 
L 320.313876 59.622828 
L 322.449761 59.622828 
L 322.449761 59.446092 
L 326.721531 59.446092 
L 326.721531 59.269356 
L 327.575885 59.269356 
L 327.575885 59.092619 
L 328.857416 59.092619 
L 328.857416 58.915883 
L 330.566124 58.915883 
L 330.566124 58.739146 
L 330.993301 58.739146 
L 330.993301 58.208937 
L 331.420478 58.208937 
L 331.420478 57.855464 
L 333.556364 57.855464 
L 333.556364 57.678728 
L 337.400957 57.678728 
L 337.400957 57.501992 
L 337.828134 57.501992 
L 337.828134 57.325255 
L 339.964019 57.325255 
L 339.964019 57.148519 
L 345.517321 57.148519 
L 345.517321 56.971782 
L 345.944498 56.971782 
L 345.944498 56.795046 
L 346.371675 56.795046 
L 346.371675 56.61831 
L 350.216268 56.61831 
L 350.216268 56.264837 
L 352.77933 56.264837 
L 352.77933 56.0881 
L 354.060861 56.0881 
L 354.060861 55.911364 
L 360.895694 55.911364 
L 360.895694 55.734628 
L 368.58488 55.734628 
L 368.58488 55.557891 
L 369.012057 55.557891 
L 369.012057 55.381155 
L 369.866411 55.381155 
L 369.866411 55.204418 
L 370.293589 55.204418 
L 370.293589 55.027682 
L 372.429474 55.027682 
L 372.429474 54.850946 
L 375.84689 54.850946 
L 375.84689 54.674209 
L 386.099139 54.674209 
L 386.099139 54.497473 
L 386.953493 54.497473 
L 386.953493 54.320736 
L 391.65244 54.320736 
L 391.65244 54.144 
L 414.72 54.144 
L 414.72 54.144 
" clip-path="url(#p3d65b4152c)" style="fill: none; stroke: #ff8c00; stroke-width: 2; stroke-linecap: square"/>
   </g>
   <g id="line2d_14">
    <path d="M 57.6 307.584 
L 414.72 54.144 
" clip-path="url(#p3d65b4152c)" style="fill: none; stroke-dasharray: 7.4,3.2; stroke-dashoffset: 0; stroke: #000080; stroke-width: 2"/>
   </g>
   <g id="patch_3">
    <path d="M 57.6 307.584 
L 57.6 41.472 
" style="fill: none; stroke: #000000; stroke-width: 0.8; stroke-linejoin: miter; stroke-linecap: square"/>
   </g>
   <g id="patch_4">
    <path d="M 414.72 307.584 
L 414.72 41.472 
" style="fill: none; stroke: #000000; stroke-width: 0.8; stroke-linejoin: miter; stroke-linecap: square"/>
   </g>
   <g id="patch_5">
    <path d="M 57.6 307.584 
L 414.72 307.584 
" style="fill: none; stroke: #000000; stroke-width: 0.8; stroke-linejoin: miter; stroke-linecap: square"/>
   </g>
   <g id="patch_6">
    <path d="M 57.6 41.472 
L 414.72 41.472 
" style="fill: none; stroke: #000000; stroke-width: 0.8; stroke-linejoin: miter; stroke-linecap: square"/>
   </g>
   <g id="text_15">
    <!-- Receiver Operating Characteristic (ROC) Curve -->
    <g transform="translate(95.3775 35.472) scale(0.12 -0.12)">
     <defs>
      <path id="DejaVuSans-63" d="M 3122 3366 
L 3122 2828 
Q 2878 2963 2633 3030 
Q 2388 3097 2138 3097 
Q 1578 3097 1268 2742 
Q 959 2388 959 1747 
Q 959 1106 1268 751 
Q 1578 397 2138 397 
Q 2388 397 2633 464 
Q 2878 531 3122 666 
L 3122 134 
Q 2881 22 2623 -34 
Q 2366 -91 2075 -91 
Q 1284 -91 818 406 
Q 353 903 353 1747 
Q 353 2603 823 3093 
Q 1294 3584 2113 3584 
Q 2378 3584 2631 3529 
Q 2884 3475 3122 3366 
z
" transform="scale(0.015625)"/>
      <path id="DejaVuSans-4f" d="M 2522 4238 
Q 1834 4238 1429 3725 
Q 1025 3213 1025 2328 
Q 1025 1447 1429 934 
Q 1834 422 2522 422 
Q 3209 422 3611 934 
Q 4013 1447 4013 2328 
Q 4013 3213 3611 3725 
Q 3209 4238 2522 4238 
z
M 2522 4750 
Q 3503 4750 4090 4092 
Q 4678 3434 4678 2328 
Q 4678 1225 4090 567 
Q 3503 -91 2522 -91 
Q 1538 -91 948 565 
Q 359 1222 359 2328 
Q 359 3434 948 4092 
Q 1538 4750 2522 4750 
z
" transform="scale(0.015625)"/>
      <path id="DejaVuSans-70" d="M 1159 525 
L 1159 -1331 
L 581 -1331 
L 581 3500 
L 1159 3500 
L 1159 2969 
Q 1341 3281 1617 3432 
Q 1894 3584 2278 3584 
Q 2916 3584 3314 3078 
Q 3713 2572 3713 1747 
Q 3713 922 3314 415 
Q 2916 -91 2278 -91 
Q 1894 -91 1617 61 
Q 1341 213 1159 525 
z
M 3116 1747 
Q 3116 2381 2855 2742 
Q 2594 3103 2138 3103 
Q 1681 3103 1420 2742 
Q 1159 2381 1159 1747 
Q 1159 1113 1420 752 
Q 1681 391 2138 391 
Q 2594 391 2855 752 
Q 3116 1113 3116 1747 
z
" transform="scale(0.015625)"/>
      <path id="DejaVuSans-6e" d="M 3513 2113 
L 3513 0 
L 2938 0 
L 2938 2094 
Q 2938 2591 2744 2837 
Q 2550 3084 2163 3084 
Q 1697 3084 1428 2787 
Q 1159 2491 1159 1978 
L 1159 0 
L 581 0 
L 581 3500 
L 1159 3500 
L 1159 2956 
Q 1366 3272 1645 3428 
Q 1925 3584 2291 3584 
Q 2894 3584 3203 3211 
Q 3513 2838 3513 2113 
z
" transform="scale(0.015625)"/>
      <path id="DejaVuSans-67" d="M 2906 1791 
Q 2906 2416 2648 2759 
Q 2391 3103 1925 3103 
Q 1463 3103 1205 2759 
Q 947 2416 947 1791 
Q 947 1169 1205 825 
Q 1463 481 1925 481 
Q 2391 481 2648 825 
Q 2906 1169 2906 1791 
z
M 3481 434 
Q 3481 -459 3084 -895 
Q 2688 -1331 1869 -1331 
Q 1566 -1331 1297 -1286 
Q 1028 -1241 775 -1147 
L 775 -588 
Q 1028 -725 1275 -790 
Q 1522 -856 1778 -856 
Q 2344 -856 2625 -561 
Q 2906 -266 2906 331 
L 2906 616 
Q 2728 306 2450 153 
Q 2172 0 1784 0 
Q 1141 0 747 490 
Q 353 981 353 1791 
Q 353 2603 747 3093 
Q 1141 3584 1784 3584 
Q 2172 3584 2450 3431 
Q 2728 3278 2906 2969 
L 2906 3500 
L 3481 3500 
L 3481 434 
z
" transform="scale(0.015625)"/>
      <path id="DejaVuSans-43" d="M 4122 4306 
L 4122 3641 
Q 3803 3938 3442 4084 
Q 3081 4231 2675 4231 
Q 1875 4231 1450 3742 
Q 1025 3253 1025 2328 
Q 1025 1406 1450 917 
Q 1875 428 2675 428 
Q 3081 428 3442 575 
Q 3803 722 4122 1019 
L 4122 359 
Q 3791 134 3420 21 
Q 3050 -91 2638 -91 
Q 1578 -91 968 557 
Q 359 1206 359 2328 
Q 359 3453 968 4101 
Q 1578 4750 2638 4750 
Q 3056 4750 3426 4639 
Q 3797 4528 4122 4306 
z
" transform="scale(0.015625)"/>
      <path id="DejaVuSans-68" d="M 3513 2113 
L 3513 0 
L 2938 0 
L 2938 2094 
Q 2938 2591 2744 2837 
Q 2550 3084 2163 3084 
Q 1697 3084 1428 2787 
Q 1159 2491 1159 1978 
L 1159 0 
L 581 0 
L 581 4863 
L 1159 4863 
L 1159 2956 
Q 1366 3272 1645 3428 
Q 1925 3584 2291 3584 
Q 2894 3584 3203 3211 
Q 3513 2838 3513 2113 
z
" transform="scale(0.015625)"/>
      <path id="DejaVuSans-28" d="M 1984 4856 
Q 1566 4138 1362 3434 
Q 1159 2731 1159 2009 
Q 1159 1288 1364 580 
Q 1569 -128 1984 -844 
L 1484 -844 
Q 1016 -109 783 600 
Q 550 1309 550 2009 
Q 550 2706 781 3412 
Q 1013 4119 1484 4856 
L 1984 4856 
z
" transform="scale(0.015625)"/>
      <path id="DejaVuSans-29" d="M 513 4856 
L 1013 4856 
Q 1481 4119 1714 3412 
Q 1947 2706 1947 2009 
Q 1947 1309 1714 600 
Q 1481 -109 1013 -844 
L 513 -844 
Q 928 -128 1133 580 
Q 1338 1288 1338 2009 
Q 1338 2731 1133 3434 
Q 928 4138 513 4856 
z
" transform="scale(0.015625)"/>
     </defs>
     <use xlink:href="#DejaVuSans-52"/>
     <use xlink:href="#DejaVuSans-65" x="64.982422"/>
     <use xlink:href="#DejaVuSans-63" x="126.505859"/>
     <use xlink:href="#DejaVuSans-65" x="181.486328"/>
     <use xlink:href="#DejaVuSans-69" x="243.009766"/>
     <use xlink:href="#DejaVuSans-76" x="270.792969"/>
     <use xlink:href="#DejaVuSans-65" x="329.972656"/>
     <use xlink:href="#DejaVuSans-72" x="391.496094"/>
     <use xlink:href="#DejaVuSans-20" x="432.609375"/>
     <use xlink:href="#DejaVuSans-4f" x="464.396484"/>
     <use xlink:href="#DejaVuSans-70" x="543.107422"/>
     <use xlink:href="#DejaVuSans-65" x="606.583984"/>
     <use xlink:href="#DejaVuSans-72" x="668.107422"/>
     <use xlink:href="#DejaVuSans-61" x="709.220703"/>
     <use xlink:href="#DejaVuSans-74" x="770.5"/>
     <use xlink:href="#DejaVuSans-69" x="809.708984"/>
     <use xlink:href="#DejaVuSans-6e" x="837.492188"/>
     <use xlink:href="#DejaVuSans-67" x="900.871094"/>
     <use xlink:href="#DejaVuSans-20" x="964.347656"/>
     <use xlink:href="#DejaVuSans-43" x="996.134766"/>
     <use xlink:href="#DejaVuSans-68" x="1065.958984"/>
     <use xlink:href="#DejaVuSans-61" x="1129.337891"/>
     <use xlink:href="#DejaVuSans-72" x="1190.617188"/>
     <use xlink:href="#DejaVuSans-61" x="1231.730469"/>
     <use xlink:href="#DejaVuSans-63" x="1293.009766"/>
     <use xlink:href="#DejaVuSans-74" x="1347.990234"/>
     <use xlink:href="#DejaVuSans-65" x="1387.199219"/>
     <use xlink:href="#DejaVuSans-72" x="1448.722656"/>
     <use xlink:href="#DejaVuSans-69" x="1489.835938"/>
     <use xlink:href="#DejaVuSans-73" x="1517.619141"/>
     <use xlink:href="#DejaVuSans-74" x="1569.71875"/>
     <use xlink:href="#DejaVuSans-69" x="1608.927734"/>
     <use xlink:href="#DejaVuSans-63" x="1636.710938"/>
     <use xlink:href="#DejaVuSans-20" x="1691.691406"/>
     <use xlink:href="#DejaVuSans-28" x="1723.478516"/>
     <use xlink:href="#DejaVuSans-52" x="1762.492188"/>
     <use xlink:href="#DejaVuSans-4f" x="1831.974609"/>
     <use xlink:href="#DejaVuSans-43" x="1910.685547"/>
     <use xlink:href="#DejaVuSans-29" x="1980.509766"/>
     <use xlink:href="#DejaVuSans-20" x="2019.523438"/>
     <use xlink:href="#DejaVuSans-43" x="2051.310547"/>
     <use xlink:href="#DejaVuSans-75" x="2121.134766"/>
     <use xlink:href="#DejaVuSans-72" x="2184.513672"/>
     <use xlink:href="#DejaVuSans-76" x="2225.626953"/>
     <use xlink:href="#DejaVuSans-65" x="2284.806641"/>
    </g>
   </g>
   <g id="legend_1">
    <g id="patch_7">
     <path d="M 252.441875 302.584 
L 407.72 302.584 
Q 409.72 302.584 409.72 300.584 
L 409.72 286.905875 
Q 409.72 284.905875 407.72 284.905875 
L 252.441875 284.905875 
Q 250.441875 284.905875 250.441875 286.905875 
L 250.441875 300.584 
Q 250.441875 302.584 252.441875 302.584 
z
" style="fill: #ffffff; opacity: 0.8; stroke: #cccccc; stroke-linejoin: miter"/>
    </g>
    <g id="line2d_15">
     <path d="M 254.441875 293.004312 
L 264.441875 293.004312 
L 274.441875 293.004312 
" style="fill: none; stroke: #ff8c00; stroke-width: 2; stroke-linecap: square"/>
    </g>
    <g id="text_16">
     <!-- ROC curve (area = 0.84) -->
     <g transform="translate(282.441875 296.504312) scale(0.1 -0.1)">
      <defs>
       <path id="DejaVuSans-3d" d="M 678 2906 
L 4684 2906 
L 4684 2381 
L 678 2381 
L 678 2906 
z
M 678 1631 
L 4684 1631 
L 4684 1100 
L 678 1100 
L 678 1631 
z
" transform="scale(0.015625)"/>
      </defs>
      <use xlink:href="#DejaVuSans-52"/>
      <use xlink:href="#DejaVuSans-4f" x="69.482422"/>
      <use xlink:href="#DejaVuSans-43" x="148.193359"/>
      <use xlink:href="#DejaVuSans-20" x="218.017578"/>
      <use xlink:href="#DejaVuSans-63" x="249.804688"/>
      <use xlink:href="#DejaVuSans-75" x="304.785156"/>
      <use xlink:href="#DejaVuSans-72" x="368.164062"/>
      <use xlink:href="#DejaVuSans-76" x="409.277344"/>
      <use xlink:href="#DejaVuSans-65" x="468.457031"/>
      <use xlink:href="#DejaVuSans-20" x="529.980469"/>
      <use xlink:href="#DejaVuSans-28" x="561.767578"/>
      <use xlink:href="#DejaVuSans-61" x="600.78125"/>
      <use xlink:href="#DejaVuSans-72" x="662.060547"/>
      <use xlink:href="#DejaVuSans-65" x="700.923828"/>
      <use xlink:href="#DejaVuSans-61" x="762.447266"/>
      <use xlink:href="#DejaVuSans-20" x="823.726562"/>
      <use xlink:href="#DejaVuSans-3d" x="855.513672"/>
      <use xlink:href="#DejaVuSans-20" x="939.302734"/>
      <use xlink:href="#DejaVuSans-30" x="971.089844"/>
      <use xlink:href="#DejaVuSans-2e" x="1034.712891"/>
      <use xlink:href="#DejaVuSans-38" x="1066.5"/>
      <use xlink:href="#DejaVuSans-34" x="1130.123047"/>
      <use xlink:href="#DejaVuSans-29" x="1193.746094"/>
     </g>
    </g>
   </g>
  </g>
 </g>
 <defs>
  <clipPath id="p3d65b4152c">
   <rect x="57.6" y="41.472" width="357.12" height="266.112"/>
  </clipPath>
 </defs>
</svg>
